<?xml version="1.0" encoding="UTF-8" standalone="no"?>
<!-- Created with Inkscape (http://www.inkscape.org/) -->

<svg
   xmlns:dc="http://purl.org/dc/elements/1.1/"
   xmlns:cc="http://creativecommons.org/ns#"
   xmlns:rdf="http://www.w3.org/1999/02/22-rdf-syntax-ns#"
   xmlns:svg="http://www.w3.org/2000/svg"
   xmlns="http://www.w3.org/2000/svg"
   xmlns:xlink="http://www.w3.org/1999/xlink"
   xmlns:sodipodi="http://sodipodi.sourceforge.net/DTD/sodipodi-0.dtd"
   xmlns:inkscape="http://www.inkscape.org/namespaces/inkscape"
   width="744.09448819"
   height="1052.3622047"
   id="svg2"
   version="1.1"
   inkscape:version="0.48.3.1 r9886"
   inkscape:export-filename="/home/jussil/Home/Projects/Programming/Projects/dustrac/sourceforge-git/dustrac/data/images/about.png"
   inkscape:export-xdpi="36.040001"
   inkscape:export-ydpi="36.040001"
   sodipodi:docname="tire.svg">
  <defs
     id="defs4">
    <path
       sodipodi:type="arc"
       style="opacity:0.75;fill:none;stroke:#06ffff;stroke-width:0.5;stroke-linecap:square;stroke-linejoin:round;stroke-miterlimit:1;stroke-opacity:1;stroke-dasharray:none"
       id="path3771-6"
       sodipodi:cx="-252.14285"
       sodipodi:cy="951.64789"
       sodipodi:rx="197.85715"
       sodipodi:ry="200.71428"
       d="m -54.285706,951.64789 a 197.85715,200.71428 0 1 1 -395.714294,0 197.85715,200.71428 0 1 1 395.714294,0 z"
       transform="matrix(1.33875,0,0,1.33875,131.69911,-709.22787)" />
    <path
       sodipodi:type="arc"
       style="opacity:0.75;fill:none;stroke:#06ffff;stroke-width:0.5;stroke-linecap:square;stroke-linejoin:round;stroke-miterlimit:1;stroke-opacity:1;stroke-dasharray:none"
       id="path3771-6-8"
       sodipodi:cx="-252.14285"
       sodipodi:cy="951.64789"
       sodipodi:rx="197.85715"
       sodipodi:ry="200.71428"
       d="m -54.285706,951.64789 a 197.85715,200.71428 0 1 1 -395.714294,0 197.85715,200.71428 0 1 1 395.714294,0 z"
       transform="matrix(1.33875,0,0,1.33875,131.69911,-709.22787)" />
  </defs>
  <sodipodi:namedview
     id="base"
     pagecolor="#ffffff"
     bordercolor="#666666"
     borderopacity="1.0"
     inkscape:pageopacity="0.0"
     inkscape:pageshadow="2"
     inkscape:zoom="0.7"
     inkscape:cx="-49.0308"
     inkscape:cy="652.95737"
     inkscape:document-units="px"
     inkscape:current-layer="layer1"
     showgrid="false"
     inkscape:window-width="1280"
     inkscape:window-height="776"
     inkscape:window-x="0"
     inkscape:window-y="24"
     inkscape:window-maximized="1" />
  <metadata
     id="metadata7">
    <rdf:RDF>
      <cc:Work
         rdf:about="">
        <dc:format>image/svg+xml</dc:format>
        <dc:type
           rdf:resource="http://purl.org/dc/dcmitype/StillImage" />
        <dc:title></dc:title>
      </cc:Work>
    </rdf:RDF>
  </metadata>
  <g
     inkscape:label="Layer 1"
     inkscape:groupmode="layer"
     id="layer1">
    <path
       sodipodi:type="arc"
       style="fill:none;stroke:#000000;stroke-width:80;stroke-linejoin:round;stroke-miterlimit:4;stroke-opacity:0.96499999;stroke-dasharray:none"
       id="path4090"
       sodipodi:cx="225"
       sodipodi:cy="254.50504"
       sodipodi:rx="139.28572"
       sodipodi:ry="139.28572"
       d="m 364.28572,254.50504 a 139.28572,139.28572 0 1 1 -278.571441,0 139.28572,139.28572 0 1 1 278.571441,0 z"
       transform="matrix(1.6610782,0,0,1.6610782,-0.88543238,-58.961994)" />
    <path
       sodipodi:type="arc"
       style="fill:none;stroke:#000000;stroke-width:5;stroke-linejoin:round;stroke-miterlimit:4;stroke-opacity:0.67579908;stroke-dasharray:none"
       id="path4010"
       sodipodi:cx="252.85715"
       sodipodi:cy="282.36218"
       sodipodi:rx="197.14285"
       sodipodi:ry="197.14285"
       d="m 450,282.36218 a 197.14285,197.14285 0 1 1 -394.285706,0 197.14285,197.14285 0 1 1 394.285706,0 z"
       transform="matrix(0.97490999,0,0,0.98215637,126.3442,86.466948)" />
    <path
       sodipodi:type="arc"
       style="fill:none;stroke:#e3dbdb;stroke-width:80;stroke-linejoin:round;stroke-miterlimit:4;stroke-opacity:1;stroke-dasharray:none"
       id="path4002"
       sodipodi:cx="253.57143"
       sodipodi:cy="270.21933"
       sodipodi:rx="210.71428"
       sodipodi:ry="210.71428"
       d="m 464.28571,270.21933 a 210.71428,210.71428 0 1 1 -421.428563,0 210.71428,210.71428 0 1 1 421.428563,0 z"
       transform="translate(119.28573,93.571434)" />
    <path
       sodipodi:type="arc"
       style="fill:none;stroke:#101010;stroke-opacity:0.67579908"
       id="path3869"
       sodipodi:cx="253.04321"
       sodipodi:cy="253.83659"
       sodipodi:rx="95.459419"
       sodipodi:ry="95.459419"
       d="m 348.50263,253.83659 a 95.459419,95.459419 0 1 1 -190.91884,0 95.459419,95.459419 0 1 1 190.91884,0 z"
       transform="matrix(2.2000634,0,0,2.2000634,-183.85395,-194.66584)"
       inkscape:export-filename="/home/jussil/dustrac-logo.png"
       inkscape:export-xdpi="9.0100002"
       inkscape:export-ydpi="9.0100002" />
    <path
       sodipodi:type="arc"
       style="fill:none;stroke:#101010;stroke-opacity:0.67579908"
       id="path3869-1"
       sodipodi:cx="253.04321"
       sodipodi:cy="253.83659"
       sodipodi:rx="95.459419"
       sodipodi:ry="95.459419"
       d="m 348.50263,253.83659 a 95.459419,95.459419 0 1 1 -190.91884,0 95.459419,95.459419 0 1 1 190.91884,0 z"
       transform="matrix(3.3314941,0,0,3.3314941,-470.15481,-481.86435)"
       inkscape:export-filename="/home/jussil/dustrac-logo.png"
       inkscape:export-xdpi="9.0100002"
       inkscape:export-ydpi="9.0100002" />
    <path
       style="fill:#333333;fill-opacity:1;stroke:#101010;stroke-width:5;stroke-opacity:1;stroke-miterlimit:4;stroke-dasharray:none"
       d="M 350.30115,678.86786 C 249.29089,669.59401 164.71321,619.88531 109.94624,537.60451 27.855097,414.27242 43.362355,250.79598 147.32808,143.52774 c 24.91748,-25.70899 53.6751,-46.350785 87.97307,-63.145768 33.96906,-16.63392 64.2561,-25.544513 101.72219,-29.927156 143.19558,-16.75049 280.02711,67.139844 331.76692,203.403724 6.05703,15.952 13.59905,45.76324 16.68228,65.93975 5.16614,33.80712 3.01517,79.87142 -5.43425,116.37765 -10.28307,44.42872 -34.66043,93.1935 -64.27243,128.57142 -51.03382,60.9709 -119.90428,99.67036 -198.32185,111.44035 -14.84425,2.22801 -54.72729,3.82004 -67.14286,2.68015 l 0,0 z m 65,-107.72225 c 84.24306,-17.74537 146.9557,-80.64785 165.18396,-165.68396 4.63355,-21.61584 4.63708,-61.20959 0.007,-82.85714 -9.41969,-44.04465 -29.88947,-81.60063 -60.38309,-110.78507 -33.34927,-31.91775 -71.8343,-50.73617 -117.9388,-57.66987 -22.68815,-3.41209 -59.71971,-1.27667 -82.96964,4.78444 -73.17451,19.07612 -132.19795,78.09014 -151.1141,151.08995 -6.18881,23.8834 -8.27985,59.96119 -4.81184,83.02119 9.49168,63.11333 44.49624,117.05187 97.74066,150.6086 21.58102,13.60121 54.28274,25.60771 80.71428,29.63443 18.97364,2.89054 54.6036,1.85291 73.57143,-2.14257 z"
       id="path3889"
       inkscape:connector-curvature="0"
       inkscape:export-filename="/home/jussil/dustrac-logo.png"
       inkscape:export-xdpi="9.0100002"
       inkscape:export-ydpi="9.0100002" />
    <text
       xml:space="preserve"
       style="font-size:40px;font-style:normal;font-weight:normal;line-height:125%;letter-spacing:0px;word-spacing:0px;fill:#ffffff;fill-opacity:1;stroke:#ffffff;font-family:Sans;stroke-opacity:1"
       x="127.14286"
       y="-83.352104"
       id="text2992"
       sodipodi:linespacing="125%"><tspan
         sodipodi:role="line"
         id="tspan2994"
         x="127.14286"
         y="-83.352104">DUST RACING</tspan></text>
    <text
       xml:space="preserve"
       style="font-size:48px;font-style:normal;font-weight:normal;line-height:125%;letter-spacing:0px;word-spacing:0px;fill:#ffffff;fill-opacity:1;stroke:#ffffff;stroke-opacity:1;font-family:Sans"
       id="text3776"
       sodipodi:linespacing="125%"
       transform="translate(562,-218)"
       x="445.36858"
       y="351.01907"><tspan
         style="fill:#ffffff;fill-opacity:1;stroke:#ffffff;stroke-opacity:1"
         id="tspan3778">DUST RACING</tspan></text>
    <text
       xml:space="preserve"
       style="font-size:48px;font-style:normal;font-weight:normal;line-height:125%;letter-spacing:0px;word-spacing:0px;fill:#ffffff;fill-opacity:1;stroke:#ffffff;stroke-opacity:1;font-family:Sans"
       id="text3776-5"
       sodipodi:linespacing="125%"
       transform="matrix(-1,0,0,-1,184.1985,947.0663)"><textPath
         xlink:href="#path3771-6"
         id="textPath3780-5"><tspan
   id="tspan3778-2"
   style="fill:#ffffff;fill-opacity:1;stroke:#ffffff;stroke-opacity:1">DUST RACING</tspan></textPath></text>
    <text
       xml:space="preserve"
       style="font-size:48px;font-style:normal;font-weight:normal;line-height:125%;letter-spacing:0px;word-spacing:0px;fill:#ffffff;fill-opacity:1;stroke:#ffffff;stroke-opacity:1;font-family:Sans"
       id="text3776-5-4"
       sodipodi:linespacing="125%"
       transform="translate(562.65865,-216.05623)"><textPath
         xlink:href="#path3771-6-8"
         id="textPath3780-5-9"><tspan
   id="tspan3778-2-3"
   style="fill:#ffffff;fill-opacity:1;stroke:#ffffff;stroke-opacity:1">DUST RACING</tspan></textPath></text>
  </g>
</svg>
