<?xml version="1.0" encoding="UTF-8" standalone="no"?>
<!-- Created with Inkscape (http://www.inkscape.org/) -->

<svg
   xmlns:dc="http://purl.org/dc/elements/1.1/"
   xmlns:cc="http://creativecommons.org/ns#"
   xmlns:rdf="http://www.w3.org/1999/02/22-rdf-syntax-ns#"
   xmlns:svg="http://www.w3.org/2000/svg"
   xmlns="http://www.w3.org/2000/svg"
   xmlns:sodipodi="http://sodipodi.sourceforge.net/DTD/sodipodi-0.dtd"
   xmlns:inkscape="http://www.inkscape.org/namespaces/inkscape"
   width="744.09448819"
   height="1052.3622047"
   id="svg2"
   version="1.1"
   inkscape:version="0.48.2 r9819"
   inkscape:export-filename="/home/jussil/dustrac-logo3.png"
   inkscape:export-xdpi="36.040001"
   inkscape:export-ydpi="36.040001"
   sodipodi:docname="logo.svg">
  <defs
     id="defs4" />
  <sodipodi:namedview
     id="base"
     pagecolor="#ffffff"
     bordercolor="#666666"
     borderopacity="1.0"
     inkscape:pageopacity="0.0"
     inkscape:pageshadow="2"
     inkscape:zoom="0.7"
     inkscape:cx="205.9692"
     inkscape:cy="692.23549"
     inkscape:document-units="px"
     inkscape:current-layer="layer1"
     showgrid="false"
     inkscape:window-width="1280"
     inkscape:window-height="776"
     inkscape:window-x="0"
     inkscape:window-y="24"
     inkscape:window-maximized="1" />
  <metadata
     id="metadata7">
    <rdf:RDF>
      <cc:Work
         rdf:about="">
        <dc:format>image/svg+xml</dc:format>
        <dc:type
           rdf:resource="http://purl.org/dc/dcmitype/StillImage" />
        <dc:title></dc:title>
      </cc:Work>
    </rdf:RDF>
  </metadata>
  <g
     inkscape:label="Layer 1"
     inkscape:groupmode="layer"
     id="layer1">
    <path
       sodipodi:type="arc"
       style="fill:none;stroke:#000000;stroke-width:80;stroke-linejoin:round;stroke-miterlimit:4;stroke-opacity:0.96499999;stroke-dasharray:none"
       id="path4090"
       sodipodi:cx="225"
       sodipodi:cy="254.50504"
       sodipodi:rx="139.28572"
       sodipodi:ry="139.28572"
       d="m 364.28572,254.50504 a 139.28572,139.28572 0 1 1 -278.571441,0 139.28572,139.28572 0 1 1 278.571441,0 z"
       transform="matrix(1.6610782,0,0,1.6610782,-0.88543238,-58.961994)" />
    <path
       sodipodi:type="arc"
       style="fill:none;stroke:#000000;stroke-width:5;stroke-linejoin:round;stroke-miterlimit:4;stroke-opacity:0.67579908;stroke-dasharray:none"
       id="path4010"
       sodipodi:cx="252.85715"
       sodipodi:cy="282.36218"
       sodipodi:rx="197.14285"
       sodipodi:ry="197.14285"
       d="m 450,282.36218 a 197.14285,197.14285 0 1 1 -394.285706,0 197.14285,197.14285 0 1 1 394.285706,0 z"
       transform="matrix(0.97490999,0,0,0.98215637,126.3442,86.466948)" />
    <path
       sodipodi:type="arc"
       style="fill:none;stroke:#e3dbdb;stroke-width:80;stroke-linejoin:round;stroke-miterlimit:4;stroke-opacity:1;stroke-dasharray:none"
       id="path4002"
       sodipodi:cx="253.57143"
       sodipodi:cy="270.21933"
       sodipodi:rx="210.71428"
       sodipodi:ry="210.71428"
       d="m 464.28571,270.21933 a 210.71428,210.71428 0 1 1 -421.428563,0 210.71428,210.71428 0 1 1 421.428563,0 z"
       transform="translate(119.28573,93.571434)" />
    <path
       sodipodi:type="arc"
       style="fill:#ffd5d5;fill-opacity:1;stroke:#000000;stroke-opacity:1;stroke-width:5.00000010000000028;stroke-miterlimit:4;stroke-dasharray:none"
       id="path3891"
       sodipodi:cx="276.42856"
       sodipodi:cy="221.6479"
       sodipodi:rx="136.42857"
       sodipodi:ry="136.42857"
       d="m 412.85713,221.6479 a 136.42857,136.42857 0 1 1 -272.85715,0 136.42857,136.42857 0 1 1 272.85715,0 z"
       transform="translate(96.428602,142.14286)"
       inkscape:export-filename="/home/jussil/dustrac-logo.png"
       inkscape:export-xdpi="9.0100002"
       inkscape:export-ydpi="9.0100002" />
    <rect
       style="fill:#b3b3b3;fill-opacity:1;stroke:#000000;stroke-opacity:1;stroke-linejoin:round;stroke-width:5;stroke-miterlimit:4;stroke-dasharray:none"
       id="rect3977"
       width="78.571426"
       height="145.71428"
       x="231.42857"
       y="290.93362" />
    <path
       sodipodi:type="star"
       style="fill:#e3e2db;fill-opacity:1;stroke:#000000;stroke-opacity:1;stroke-width:5.00000010000000028;stroke-miterlimit:4;stroke-dasharray:none"
       id="path2985"
       sodipodi:sides="6"
       sodipodi:cx="54.548237"
       sodipodi:cy="51.30101"
       sodipodi:r1="208.91606"
       sodipodi:r2="83.566422"
       sodipodi:arg1="0.93986709"
       sodipodi:arg2="1.4634659"
       inkscape:flatsided="false"
       inkscape:rounded="0.1"
       inkscape:randomized="0"
       d="M 177.78685,219.99649 C 166.25642,228.41992 77.697603,132.85687 63.500246,134.38656 49.302889,135.91625 -16.866912,248.15045 -29.927027,242.37652 -42.987142,236.60259 -4.5065278,112.12688 -12.929954,100.59645 -21.35338,89.066024 -151.63595,87.878397 -153.16564,73.681041 -154.69533,59.483684 -27.655894,30.571018 -21.881963,17.510903 -16.108033,4.4507882 -80.220805,-108.97104 -68.690377,-117.39447 -57.159949,-125.8179 31.398871,-30.254851 45.596228,-31.784538 59.793584,-33.314225 125.96339,-145.54843 139.0235,-139.7745 152.08362,-134.00057 113.603,-9.5248592 122.02643,2.0055688 130.44985,13.535996 260.73243,14.723623 262.26211,28.92098 263.7918,43.118337 136.75237,72.031002 130.97844,85.091117 125.20451,98.151232 189.31728,211.57306 177.78685,219.99649 z"
       inkscape:transform-center-x="0.1685434"
       inkscape:transform-center-y="-19.789346"
       transform="translate(318.30892,312.48975)"
       inkscape:export-filename="/home/jussil/dustrac-logo.png"
       inkscape:export-xdpi="9.0100002"
       inkscape:export-ydpi="9.0100002" />
    <path
       sodipodi:type="arc"
       style="fill:#b3b3b3;fill-opacity:1;stroke:#000000;stroke-width:5;stroke-miterlimit:4;stroke-opacity:1;stroke-dasharray:none"
       id="path3865"
       sodipodi:cx="104.04572"
       sodipodi:cy="152.31627"
       sodipodi:rx="36.36549"
       sodipodi:ry="36.36549"
       d="m 140.41121,152.31627 a 36.36549,36.36549 0 1 1 -72.730977,0 36.36549,36.36549 0 1 1 72.730977,0 z"
       transform="matrix(1.0721353,0,0,1.0721353,261.30607,200.48711)"
       inkscape:export-filename="/home/jussil/dustrac-logo.png"
       inkscape:export-xdpi="9.0100002"
       inkscape:export-ydpi="9.0100002" />
    <path
       sodipodi:type="arc"
       style="fill:none;stroke:#101010;stroke-opacity:0.67579908"
       id="path3869"
       sodipodi:cx="253.04321"
       sodipodi:cy="253.83659"
       sodipodi:rx="95.459419"
       sodipodi:ry="95.459419"
       d="m 348.50263,253.83659 a 95.459419,95.459419 0 1 1 -190.91884,0 95.459419,95.459419 0 1 1 190.91884,0 z"
       transform="matrix(2.2000634,0,0,2.2000634,-183.85395,-194.66584)"
       inkscape:export-filename="/home/jussil/dustrac-logo.png"
       inkscape:export-xdpi="9.0100002"
       inkscape:export-ydpi="9.0100002" />
    <path
       sodipodi:type="arc"
       style="fill:none;stroke:#101010;stroke-opacity:0.67579908"
       id="path3869-1"
       sodipodi:cx="253.04321"
       sodipodi:cy="253.83659"
       sodipodi:rx="95.459419"
       sodipodi:ry="95.459419"
       d="m 348.50263,253.83659 a 95.459419,95.459419 0 1 1 -190.91884,0 95.459419,95.459419 0 1 1 190.91884,0 z"
       transform="matrix(3.3314941,0,0,3.3314941,-470.15481,-481.86435)"
       inkscape:export-filename="/home/jussil/dustrac-logo.png"
       inkscape:export-xdpi="9.0100002"
       inkscape:export-ydpi="9.0100002" />
    <path
       style="fill:#333333;fill-opacity:1;stroke:#101010;stroke-width:5;stroke-opacity:1;stroke-miterlimit:4;stroke-dasharray:none"
       d="M 350.30115,678.86786 C 249.29089,669.59401 164.71321,619.88531 109.94624,537.60451 27.855097,414.27242 43.362355,250.79598 147.32808,143.52774 c 24.91748,-25.70899 53.6751,-46.350785 87.97307,-63.145768 33.96906,-16.63392 64.2561,-25.544513 101.72219,-29.927156 143.19558,-16.75049 280.02711,67.139844 331.76692,203.403724 6.05703,15.952 13.59905,45.76324 16.68228,65.93975 5.16614,33.80712 3.01517,79.87142 -5.43425,116.37765 -10.28307,44.42872 -34.66043,93.1935 -64.27243,128.57142 -51.03382,60.9709 -119.90428,99.67036 -198.32185,111.44035 -14.84425,2.22801 -54.72729,3.82004 -67.14286,2.68015 l 0,0 z m 65,-107.72225 c 84.24306,-17.74537 146.9557,-80.64785 165.18396,-165.68396 4.63355,-21.61584 4.63708,-61.20959 0.007,-82.85714 -9.41969,-44.04465 -29.88947,-81.60063 -60.38309,-110.78507 -33.34927,-31.91775 -71.8343,-50.73617 -117.9388,-57.66987 -22.68815,-3.41209 -59.71971,-1.27667 -82.96964,4.78444 -73.17451,19.07612 -132.19795,78.09014 -151.1141,151.08995 -6.18881,23.8834 -8.27985,59.96119 -4.81184,83.02119 9.49168,63.11333 44.49624,117.05187 97.74066,150.6086 21.58102,13.60121 54.28274,25.60771 80.71428,29.63443 18.97364,2.89054 54.6036,1.85291 73.57143,-2.14257 z"
       id="path3889"
       inkscape:connector-curvature="0"
       inkscape:export-filename="/home/jussil/dustrac-logo.png"
       inkscape:export-xdpi="9.0100002"
       inkscape:export-ydpi="9.0100002" />
  </g>
</svg>
