<?xml version="1.0" encoding="UTF-8" standalone="no"?>
<!-- Created with Inkscape (http://www.inkscape.org/) -->

<svg
   xmlns:dc="http://purl.org/dc/elements/1.1/"
   xmlns:cc="http://creativecommons.org/ns#"
   xmlns:rdf="http://www.w3.org/1999/02/22-rdf-syntax-ns#"
   xmlns:svg="http://www.w3.org/2000/svg"
   xmlns="http://www.w3.org/2000/svg"
   xmlns:sodipodi="http://sodipodi.sourceforge.net/DTD/sodipodi-0.dtd"
   xmlns:inkscape="http://www.inkscape.org/namespaces/inkscape"
   width="744.09448819"
   height="1052.3622047"
   id="svg2"
   version="1.1"
   inkscape:version="0.48.2 r9819"
   sodipodi:docname="New document 1">
  <defs
     id="defs4" />
  <sodipodi:namedview
     id="base"
     pagecolor="#ffffff"
     bordercolor="#666666"
     borderopacity="1.0"
     inkscape:pageopacity="0.0"
     inkscape:pageshadow="2"
     inkscape:zoom="1.4"
     inkscape:cx="224.27425"
     inkscape:cy="836.79463"
     inkscape:document-units="px"
     inkscape:current-layer="layer1"
     showgrid="true"
     inkscape:window-width="1680"
     inkscape:window-height="1026"
     inkscape:window-x="0"
     inkscape:window-y="24"
     inkscape:window-maximized="1">
    <inkscape:grid
       type="xygrid"
       id="grid2985" />
  </sodipodi:namedview>
  <metadata
     id="metadata7">
    <rdf:RDF>
      <cc:Work
         rdf:about="">
        <dc:format>image/svg+xml</dc:format>
        <dc:type
           rdf:resource="http://purl.org/dc/dcmitype/StillImage" />
        <dc:title></dc:title>
      </cc:Work>
    </rdf:RDF>
  </metadata>
  <g
     inkscape:label="Layer 1"
     inkscape:groupmode="layer"
     id="layer1">
    <path
       sodipodi:type="star"
       style="fill:#208020;fill-opacity:1;fill-rule:nonzero;stroke:#104010;stroke-width:5;stroke-linecap:square;stroke-linejoin:round;stroke-miterlimit:4;stroke-opacity:1;stroke-dasharray:none"
       id="path4119"
       sodipodi:sides="7"
       sodipodi:cx="190"
       sodipodi:cy="152.36218"
       sodipodi:r1="31.112698"
       sodipodi:r2="155.56349"
       sodipodi:arg1="0.78539816"
       sodipodi:arg2="1.2341971"
       inkscape:flatsided="false"
       inkscape:rounded="0.03"
       inkscape:randomized="0.05"
       d="m 206.69125,167.66412 c -2.74047,2.64526 45.5073,132.01564 42.0198,133.53223 -3.4875,1.51659 -63.79873,-114.22177 -67.61668,-114.57158 -3.81796,-0.3498 -72.72734,102.87944 -76.01881,100.76992 -3.29147,-2.10952 56.80701,-115.23495 54.56518,-118.39337 -2.24182,-3.15843 -117.361289,6.20289 -117.705899,2.45936 C 41.59023,167.71715 161.08395,147.00955 162.22811,143.26082 163.37227,139.5121 78.366353,40.612285 80.886208,37.762918 83.406064,34.913551 181.34219,121.27043 184.97147,119.91809 188.60075,118.56576 203.20284,-10.161363 206.94742,-9.7214795 210.692,-9.2815963 197.47234,130.81 200.56962,133.06357 c 3.09728,2.25357 121.48895,-73.512943 123.66118,-70.360255 2.17223,3.152687 -98.55054,89.740175 -97.83403,93.590695 0.71652,3.85051 104.18937,42.31417 102.69384,45.89016 -1.49552,3.57599 -119.65888,-37.16531 -122.39936,-34.52005 z"
       inkscape:transform-center-x="3.3106695"
       inkscape:transform-center-y="11.445216"
       transform="translate(-32.228108,29.101361)" />
  </g>
</svg>
