<?xml version="1.0" encoding="UTF-8" standalone="no"?>
<!-- Created with Inkscape (http://www.inkscape.org/) -->

<svg
   xmlns:dc="http://purl.org/dc/elements/1.1/"
   xmlns:cc="http://creativecommons.org/ns#"
   xmlns:rdf="http://www.w3.org/1999/02/22-rdf-syntax-ns#"
   xmlns:svg="http://www.w3.org/2000/svg"
   xmlns="http://www.w3.org/2000/svg"
   xmlns:sodipodi="http://sodipodi.sourceforge.net/DTD/sodipodi-0.dtd"
   xmlns:inkscape="http://www.inkscape.org/namespaces/inkscape"
   width="744.09448819"
   height="1052.3622047"
   id="svg2"
   version="1.1"
   inkscape:version="0.48.3.1 r9886"
   sodipodi:docname="rock.svg"
   inkscape:export-filename="/home/jussil/Home/Projects/Programming/Projects/dustrac/sourceforge-git/dustrac-code/data/images/rock.png"
   inkscape:export-xdpi="33.685246"
   inkscape:export-ydpi="33.685246">
  <defs
     id="defs4">
    <inkscape:path-effect
       effect="skeletal"
       id="path-effect3023"
       is_visible="true"
       pattern="M 0,5 C 0,2.24 2.24,0 5,0 7.76,0 10,2.24 10,5 10,7.76 7.76,10 5,10 2.24,10 0,7.76 0,5 z"
       copytype="single_stretched"
       prop_scale="1"
       scale_y_rel="false"
       spacing="0"
       normal_offset="0"
       tang_offset="0"
       prop_units="false"
       vertical_pattern="false"
       fuse_tolerance="0" />
    <inkscape:path-effect
       effect="spiro"
       id="path-effect3021"
       is_visible="true" />
    <inkscape:path-effect
       effect="skeletal"
       id="path-effect3016"
       is_visible="true"
       pattern="M 0,5 C 0,2.24 2.24,0 5,0 7.76,0 10,2.24 10,5 10,7.76 7.76,10 5,10 2.24,10 0,7.76 0,5 z"
       copytype="single_stretched"
       prop_scale="1"
       scale_y_rel="false"
       spacing="0"
       normal_offset="0"
       tang_offset="0"
       prop_units="false"
       vertical_pattern="false"
       fuse_tolerance="0" />
    <inkscape:path-effect
       effect="spiro"
       id="path-effect3014"
       is_visible="true" />
  </defs>
  <sodipodi:namedview
     id="base"
     pagecolor="#ffffff"
     bordercolor="#666666"
     borderopacity="1.0"
     inkscape:pageopacity="0.0"
     inkscape:pageshadow="2"
     inkscape:zoom="2.8"
     inkscape:cx="365.22919"
     inkscape:cy="550.65566"
     inkscape:document-units="px"
     inkscape:current-layer="layer1"
     showgrid="true"
     inkscape:window-width="1615"
     inkscape:window-height="1026"
     inkscape:window-x="65"
     inkscape:window-y="24"
     inkscape:window-maximized="1">
    <inkscape:grid
       type="xygrid"
       id="grid2985" />
  </sodipodi:namedview>
  <metadata
     id="metadata7">
    <rdf:RDF>
      <cc:Work
         rdf:about="">
        <dc:format>image/svg+xml</dc:format>
        <dc:type
           rdf:resource="http://purl.org/dc/dcmitype/StillImage" />
        <dc:title></dc:title>
      </cc:Work>
    </rdf:RDF>
  </metadata>
  <g
     inkscape:label="Layer 1"
     inkscape:groupmode="layer"
     id="layer1">
    <path
       sodipodi:type="star"
       style="fill:#808080;fill-opacity:1;fill-rule:evenodd;stroke:#4d4d4d;stroke-width:5;stroke-linecap:square;stroke-linejoin:round;stroke-miterlimit:1;stroke-opacity:1;stroke-dasharray:none"
       id="path3018"
       sodipodi:sides="7"
       sodipodi:cx="340"
       sodipodi:cy="172.36218"
       sodipodi:r1="38.5"
       sodipodi:r2="50"
       sodipodi:arg1="1.5707963"
       sodipodi:arg2="2.0195953"
       inkscape:flatsided="true"
       inkscape:rounded="0.2"
       inkscape:randomized="0.1"
       d="m 343.04528,215.45273 c -6.59667,-0.91308 -26.95338,-13.62978 -31.37669,-18.78144 -4.42331,-5.15166 -11.78616,-23.62152 -10.40135,-30.29209 1.3848,-6.67057 19.55618,-26.40125 25.14379,-30.24633 5.58761,-3.84507 20.78336,3.10666 26.83282,6.16913 6.04946,3.06248 24.74815,16.29177 27.05219,22.46282 2.30403,6.17105 -7.76223,25.53584 -12.41782,30.31132 -4.65559,4.77547 -18.23627,21.28967 -24.83294,20.37659 z"
       transform="translate(31.182026,350.93516)" />
    <path
       sodipodi:type="star"
       style="fill:#999999;fill-opacity:1;fill-rule:evenodd;stroke:#808080;stroke-width:5;stroke-linecap:square;stroke-linejoin:round;stroke-miterlimit:1;stroke-opacity:1;stroke-dasharray:none"
       id="path3018-0"
       sodipodi:sides="7"
       sodipodi:cx="340"
       sodipodi:cy="172.36218"
       sodipodi:r1="38.5"
       sodipodi:r2="50"
       sodipodi:arg1="1.5707963"
       sodipodi:arg2="2.0195953"
       inkscape:flatsided="true"
       inkscape:rounded="0.2"
       inkscape:randomized="0.1"
       d="m 343.04528,215.45273 c -6.59667,-0.91308 -26.95338,-13.62978 -31.37669,-18.78144 -4.42331,-5.15166 -11.78616,-23.62152 -10.40135,-30.29209 1.3848,-6.67057 19.55618,-26.40125 25.14379,-30.24633 5.58761,-3.84507 20.78336,3.10666 26.83282,6.16913 6.04946,3.06248 24.74815,16.29177 27.05219,22.46282 2.30403,6.17105 -7.76223,25.53584 -12.41782,30.31132 -4.65559,4.77547 -18.23627,21.28967 -24.83294,20.37659 z"
       transform="matrix(0.26348126,0,0,0.25947239,273.07098,461.74531)" />
    <path
       style="fill:#4d4d4d;fill-rule:evenodd;stroke:#666666;stroke-opacity:1;fill-opacity:1"
       d="m 350,542.36218 c 0.355,-0.59167 1.29401,-0.79219 2.61822,-0.63968 1.3242,0.15252 3.03299,0.65814 4.98141,1.47213 1.94842,0.81399 4.13647,1.93634 6.47767,3.31512 2.34119,1.37877 4.83613,3.01389 7.4522,4.84678 1.01694,0.71249 2.01562,1.4287 2.99493,2.14257 0,-10e-6 0,-10e-6 0,-10e-6 1.7063,-1.99775 3.35164,-3.79482 4.93262,-5.34472 1.58097,-1.5499 3.09793,-2.85267 4.49607,-3.85552 1.39814,-1.00284 2.67737,-1.70575 3.72957,-2.04934 1.0522,-0.3436 1.87682,-0.32782 2.31731,0.11267 0.44049,0.44049 0.45228,1.2691 0.0197,2.41028 -0.43258,1.14119 -1.31009,2.59502 -2.59978,4.28001 -1.28968,1.68498 -2.99164,3.60111 -5.01979,5.66035 -2.02816,2.05923 -4.38216,4.26151 -6.92456,6.51244 0,0 0,0 0,0 -1.23912,-0.61718 -2.51493,-1.26567 -3.8149,-1.94332 -3.34418,-1.74326 -6.52874,-3.51585 -9.35417,-5.23705 -2.82543,-1.7212 -5.29111,-3.39109 -7.25141,-4.92233 -1.96029,-1.53124 -3.41518,-2.92382 -4.27748,-4.08321 -0.8623,-1.15938 -1.13261,-2.0855 -0.77761,-2.67717 z"
       id="path3019"
       inkscape:path-effect="#path-effect3021;#path-effect3023"
       inkscape:original-d="m 350,542.36218 25,15 15,-15"
       inkscape:connector-curvature="0" />
    <path
       sodipodi:type="star"
       style="fill:#999999;fill-opacity:1;fill-rule:evenodd;stroke:#999999;stroke-width:5;stroke-linecap:square;stroke-linejoin:round;stroke-miterlimit:1;stroke-opacity:1;stroke-dasharray:none"
       id="path3018-0-1"
       sodipodi:sides="7"
       sodipodi:cx="340"
       sodipodi:cy="172.36218"
       sodipodi:r1="38.5"
       sodipodi:r2="50"
       sodipodi:arg1="1.5707963"
       sodipodi:arg2="2.0195953"
       inkscape:flatsided="true"
       inkscape:rounded="0.2"
       inkscape:randomized="0.1"
       d="m 343.04528,215.45273 c -6.59667,-0.91308 -26.95338,-13.62978 -31.37669,-18.78144 -4.42331,-5.15166 -11.78616,-23.62152 -10.40135,-30.29209 1.3848,-6.67057 19.55618,-26.40125 25.14379,-30.24633 5.58761,-3.84507 20.78336,3.10666 26.83282,6.16913 6.04946,3.06248 24.74815,16.29177 27.05219,22.46282 2.30403,6.17105 -7.76223,25.53584 -12.41782,30.31132 -4.65559,4.77547 -18.23627,21.28967 -24.83294,20.37659 z"
       transform="matrix(0.1884186,0,0,0.17464507,331.27584,488.01451)" />
  </g>
</svg>
