<?xml version="1.0" encoding="UTF-8" standalone="no"?>
<!-- Created with Inkscape (http://www.inkscape.org/) -->

<svg
   xmlns:dc="http://purl.org/dc/elements/1.1/"
   xmlns:cc="http://creativecommons.org/ns#"
   xmlns:rdf="http://www.w3.org/1999/02/22-rdf-syntax-ns#"
   xmlns:svg="http://www.w3.org/2000/svg"
   xmlns="http://www.w3.org/2000/svg"
   xmlns:sodipodi="http://sodipodi.sourceforge.net/DTD/sodipodi-0.dtd"
   xmlns:inkscape="http://www.inkscape.org/namespaces/inkscape"
   width="512"
   height="512"
   id="svg2"
   version="1.1"
   inkscape:version="0.91 r13725"
   sodipodi:docname="corner.svg"
   inkscape:export-filename="/home/juzzlin/Home/Desktop-16.04/Projects/Programming/dustrac/DustRacing2D/data/images/corner.png"
   inkscape:export-xdpi="45"
   inkscape:export-ydpi="45">
  <defs
     id="defs4" />
  <sodipodi:namedview
     id="base"
     pagecolor="#000000"
     bordercolor="#666666"
     borderopacity="1.0"
     inkscape:pageopacity="1"
     inkscape:pageshadow="2"
     inkscape:zoom="5.6568543"
     inkscape:cx="403.75095"
     inkscape:cy="93.510718"
     inkscape:document-units="px"
     inkscape:current-layer="layer1"
     showgrid="true"
     inkscape:window-width="2489"
     inkscape:window-height="1416"
     inkscape:window-x="71"
     inkscape:window-y="24"
     inkscape:window-maximized="1"
     inkscape:snap-global="false">
    <inkscape:grid
       type="xygrid"
       id="grid3005"
       empspacing="5"
       visible="true"
       enabled="true"
       snapvisiblegridlinesonly="true" />
  </sodipodi:namedview>
  <metadata
     id="metadata7">
    <rdf:RDF>
      <cc:Work
         rdf:about="">
        <dc:format>image/svg+xml</dc:format>
        <dc:type
           rdf:resource="http://purl.org/dc/dcmitype/StillImage" />
        <dc:title />
      </cc:Work>
    </rdf:RDF>
  </metadata>
  <g
     inkscape:label="Layer 1"
     inkscape:groupmode="layer"
     id="layer1"
     transform="translate(0,-540.36218)">
    <path
       style="fill:none;stroke:#f9f9f9;stroke-width:11.01073074;stroke-linecap:square;stroke-linejoin:miter;stroke-miterlimit:4;stroke-dasharray:none;stroke-opacity:1"
       d="M 56.598988,1046.0751 C 55.432216,683.73368 141.6325,596.24507 507.5126,596.05049"
       id="path2993"
       inkscape:connector-curvature="0"
       sodipodi:nodetypes="cc" />
    <path
       style="fill:none;stroke:#f9f9f9;stroke-width:11;stroke-linecap:square;stroke-linejoin:miter;stroke-miterlimit:4;stroke-opacity:1;stroke-dasharray:none"
       d="m 455.40914,1046.7544 c -0.13192,-41.0504 9.61442,-50.96218 50.98304,-50.98428"
       id="path2993-5"
       inkscape:connector-curvature="0"
       sodipodi:nodetypes="cc" />
    <path
       style="opacity:0;fill:#00ff00;stroke:#1a1a1a;stroke-width:11.11167812;stroke-linecap:square;stroke-miterlimit:4;stroke-dasharray:none"
       d="m 0.57863438,255.51971 0,-255.06352132 255.06351562,0 255.06352,0 0,25.09881132 0,25.098813 -40.15356,0.617328 C 297.73157,53.928114 200.84389,80.578367 139.47461,142.33844 80.186788,202.00379 53.408553,299.32485 51.492206,462.0959 c -0.271453,23.05673 -0.721721,43.39868 -1.000597,45.20433 l -0.507046,3.28299 -24.702964,0 -24.70296462,0 0,-255.06351 z"
       id="path3945"
       inkscape:connector-curvature="0"
       transform="translate(0,540.36218)" />
    <path
       style="opacity:0;fill:#00ff00;stroke:#00ff00;stroke-width:11.11167812000000055;stroke-linecap:square;stroke-miterlimit:4;stroke-dasharray:none"
       d="m 0.57863438,255.51971 0,-255.06352132 255.06351562,0 255.06352,0 0,25.09881132 0,25.098813 -40.15356,0.617328 C 297.73157,53.928114 200.84389,80.578367 139.47461,142.33844 80.186788,202.00379 53.408553,299.32485 51.492206,462.0959 c -0.271453,23.05673 -0.721721,43.39868 -1.000597,45.20433 l -0.507046,3.28299 -24.702964,0 -24.70296462,0 0,-255.06351 z"
       id="path3949"
       inkscape:connector-curvature="0"
       transform="translate(0,540.36218)" />
    <path
       style="opacity:0;fill:#00ff00;stroke:#00ff00;stroke-width:11.11167812;stroke-linecap:square;stroke-miterlimit:4;stroke-dasharray:none"
       d="m 0.57863438,255.51971 0,-255.06352132 255.06351562,0 255.06352,0 0,25.09881132 0,25.098813 -40.15356,0.617328 C 297.73157,53.928114 200.84389,80.578367 139.47461,142.33844 80.186788,202.00379 53.408553,299.32485 51.492206,462.0959 c -0.271453,23.05673 -0.721721,43.39868 -1.000597,45.20433 l -0.507046,3.28299 -24.702964,0 -24.70296462,0 0,-255.06351 z"
       id="path3951"
       inkscape:connector-curvature="0"
       transform="translate(0,540.36218)" />
    <path
       style="opacity:0;fill:#00ff00;stroke:#00ff00;stroke-width:11.11167812;stroke-linecap:square;stroke-miterlimit:4;stroke-dasharray:none"
       d="m 461.21648,505.785 c 0.0117,-6.74139 1.87269,-22.26467 3.20246,-26.71221 1.46851,-4.91158 6.1739,-10.50919 10.83148,-12.88531 4.50719,-2.29939 12.37682,-3.71921 25.60626,-4.6198 l 9.84899,-0.67048 0,24.84301 0,24.84301 -24.74874,0 -24.74874,0 0.008,-4.79822 0,0 z"
       id="path3953"
       inkscape:connector-curvature="0"
       transform="translate(0,540.36218)" />
    <path
       style="fill:#00ff00;fill-opacity:1;stroke:#ffffff;stroke-width:0.10116577;stroke-linecap:square;stroke-miterlimit:4;stroke-dasharray:none"
       d="m 0.57870965,796.00605 0,-255.94942 255.94942035,0 255.94941,0 0,25.1369 0,25.13691 -40.71922,0.61569 c -173.47292,2.62299 -270.54903,29.28473 -332.07666,91.20417 -59.307374,59.68503 -86.186212,157.226 -88.105754,319.7281 -0.269474,22.8129 -0.728451,43.4127 -1.019946,45.7776 l -0.529994,4.2995 -24.723628,0 -24.72362835,0 0,-255.94945 z"
       id="path3959"
       inkscape:connector-curvature="0" />
    <path
       style="fill:#00ff00;fill-opacity:1;stroke:#ffffff;stroke-width:0.10454243;stroke-linecap:square;stroke-miterlimit:4;stroke-dasharray:none"
       d="m 460.50426,1046.4496 c 0.0114,-7.4409 1.8885,-23.4864 3.30454,-28.2509 0.63313,-2.13 2.5374,-5.5644 4.23171,-7.6318 5.6702,-6.9198 12.90958,-9.1752 33.88928,-10.5587 l 10.68427,-0.70515 0,26.32525 0,26.3257 -26.05919,0 -26.05919,0 0.008,-5.5044 0,0 z"
       id="path3961"
       inkscape:connector-curvature="0" />
  </g>
</svg>
