<?xml version="1.0" encoding="UTF-8" standalone="no"?>
<!-- Created with Inkscape (http://www.inkscape.org/) -->

<svg
   xmlns:osb="http://www.openswatchbook.org/uri/2009/osb"
   xmlns:dc="http://purl.org/dc/elements/1.1/"
   xmlns:cc="http://creativecommons.org/ns#"
   xmlns:rdf="http://www.w3.org/1999/02/22-rdf-syntax-ns#"
   xmlns:svg="http://www.w3.org/2000/svg"
   xmlns="http://www.w3.org/2000/svg"
   xmlns:sodipodi="http://sodipodi.sourceforge.net/DTD/sodipodi-0.dtd"
   xmlns:inkscape="http://www.inkscape.org/namespaces/inkscape"
   width="512"
   height="512"
   id="svg2"
   version="1.1"
   inkscape:version="0.48.3.1 r9886"
   sodipodi:docname="corner45Left.svg"
   inkscape:export-filename="/home/jussil/Home-Laptop-12.04/Projects/Programming/Projects/dustrac/sourceforge-git/dustrac-code/data/images/corner45Left.png"
   inkscape:export-xdpi="45"
   inkscape:export-ydpi="45">
  <defs
     id="defs4">
    <linearGradient
       id="linearGradient4196"
       osb:paint="solid">
      <stop
         style="stop-color:#0300ff;stop-opacity:1;"
         offset="0"
         id="stop4198" />
    </linearGradient>
  </defs>
  <sodipodi:namedview
     id="base"
     pagecolor="#000000"
     bordercolor="#666666"
     borderopacity="1.0"
     inkscape:pageopacity="1"
     inkscape:pageshadow="2"
     inkscape:zoom="1.4"
     inkscape:cx="226.26787"
     inkscape:cy="257.554"
     inkscape:document-units="px"
     inkscape:current-layer="layer1"
     showgrid="true"
     inkscape:window-width="1535"
     inkscape:window-height="876"
     inkscape:window-x="65"
     inkscape:window-y="24"
     inkscape:window-maximized="1"
     inkscape:snap-global="false">
    <inkscape:grid
       type="xygrid"
       id="grid3005"
       empspacing="5"
       visible="true"
       enabled="true"
       snapvisiblegridlinesonly="true" />
  </sodipodi:namedview>
  <metadata
     id="metadata7">
    <rdf:RDF>
      <cc:Work
         rdf:about="">
        <dc:format>image/svg+xml</dc:format>
        <dc:type
           rdf:resource="http://purl.org/dc/dcmitype/StillImage" />
        <dc:title />
      </cc:Work>
    </rdf:RDF>
  </metadata>
  <g
     inkscape:label="Layer 1"
     inkscape:groupmode="layer"
     id="layer1"
     transform="translate(0,-540.36218)">
    <path
       style="fill:#f9f9f9;stroke:#f9f9f9;stroke-width:9.98400020999999960;stroke-linecap:square;stroke-linejoin:miter;stroke-miterlimit:0;stroke-opacity:1;stroke-dasharray:none;stroke-dashoffset:76.87679204999999172;marker-start:none;fill-opacity:1;fill-rule:nonzero"
       d="M 57.15978,1052.3622 C 57.928461,909.01396 53.002315,848.94435 2.2e-4,796.36227"
       id="path2993"
       inkscape:connector-curvature="0"
       sodipodi:nodetypes="cc" />
    <path
       style="fill:none;stroke:#f9f9f9;stroke-width:10.04291534;stroke-linecap:square;stroke-linejoin:miter;stroke-miterlimit:4;stroke-opacity:1;stroke-dasharray:none"
       d="M 455.68214,1052.3622 C 455.17179,776.76389 361.36183,647.71707 256,540.36218"
       id="path2993-5"
       inkscape:connector-curvature="0"
       sodipodi:nodetypes="cc" />
    <path
       style="opacity:0;fill:#00ff00;stroke:#1a1a1a;stroke-width:11.11167812;stroke-linecap:square;stroke-miterlimit:4;stroke-dasharray:none"
       d="m 0.57863438,255.51971 0,-255.06352132 255.06351562,0 255.06352,0 0,25.09881132 0,25.098813 -40.15356,0.617328 C 297.73157,53.928114 200.84389,80.578367 139.47461,142.33844 80.186788,202.00379 53.408553,299.32485 51.492206,462.0959 c -0.271453,23.05673 -0.721721,43.39868 -1.000597,45.20433 l -0.507046,3.28299 -24.702964,0 -24.70296462,0 0,-255.06351 z"
       id="path3945"
       inkscape:connector-curvature="0"
       transform="translate(0,540.36218)" />
    <path
       style="opacity:0;fill:#00ff00;stroke:#00ff00;stroke-width:11.11167812000000055;stroke-linecap:square;stroke-miterlimit:4;stroke-dasharray:none"
       d="m 0.57863438,255.51971 0,-255.06352132 255.06351562,0 255.06352,0 0,25.09881132 0,25.098813 -40.15356,0.617328 C 297.73157,53.928114 200.84389,80.578367 139.47461,142.33844 80.186788,202.00379 53.408553,299.32485 51.492206,462.0959 c -0.271453,23.05673 -0.721721,43.39868 -1.000597,45.20433 l -0.507046,3.28299 -24.702964,0 -24.70296462,0 0,-255.06351 z"
       id="path3949"
       inkscape:connector-curvature="0"
       transform="translate(0,540.36218)" />
    <path
       style="opacity:0;fill:#00ff00;stroke:#00ff00;stroke-width:11.11167812;stroke-linecap:square;stroke-miterlimit:4;stroke-dasharray:none"
       d="m 0.57863438,255.51971 0,-255.06352132 255.06351562,0 255.06352,0 0,25.09881132 0,25.098813 -40.15356,0.617328 C 297.73157,53.928114 200.84389,80.578367 139.47461,142.33844 80.186788,202.00379 53.408553,299.32485 51.492206,462.0959 c -0.271453,23.05673 -0.721721,43.39868 -1.000597,45.20433 l -0.507046,3.28299 -24.702964,0 -24.70296462,0 0,-255.06351 z"
       id="path3951"
       inkscape:connector-curvature="0"
       transform="translate(0,540.36218)" />
    <path
       style="opacity:0;fill:#00ff00;stroke:#00ff00;stroke-width:11.11167812;stroke-linecap:square;stroke-miterlimit:4;stroke-dasharray:none"
       d="m 461.21648,505.785 c 0.0117,-6.74139 1.87269,-22.26467 3.20246,-26.71221 1.46851,-4.91158 6.1739,-10.50919 10.83148,-12.88531 4.50719,-2.29939 12.37682,-3.71921 25.60626,-4.6198 l 9.84899,-0.67048 0,24.84301 0,24.84301 -24.74874,0 -24.74874,0 0.008,-4.79822 0,0 z"
       id="path3953"
       inkscape:connector-curvature="0"
       transform="translate(0,540.36218)" />
    <rect
       style="fill:#ff0000;fill-opacity:1;stroke:#ff0000;stroke-width:1.33261955000000021;stroke-linecap:square;stroke-miterlimit:4;stroke-dasharray:none"
       id="rect3986"
       width="14.66738"
       height="254.66737"
       x="-15.333691"
       y="797.02844" />
    <rect
       style="fill:#ff0000;fill-opacity:1;stroke:#ff0000;stroke-width:0.71960729000000001;stroke-linecap:square;stroke-miterlimit:4;stroke-dasharray:none"
       id="rect3986-5"
       width="71.280396"
       height="15.280393"
       x="-15.640196"
       y="1052.722" />
    <path
       style="fill:#00ff00;fill-opacity:1;stroke:#00ff00;stroke-width:0.51090264;stroke-linecap:square;stroke-miterlimit:4;stroke-dasharray:none"
       d="m -0.74454867,928.91271 0,-124.32905 1.3419744,1.22937 c 0.73808607,0.67617 3.13365197,3.28316 5.32347977,5.79333 25.5199025,29.2531 37.8745425,63.46377 42.9953085,119.05634 2.054116,22.30008 3.341892,61.07288 3.351239,100.9003 l 0.0051,21.6787 -26.508546,0 -26.50854658,0 0,-124.32899 z"
       id="path4006"
       inkscape:connector-curvature="0" />
    <rect
       style="fill:#ff0000;fill-opacity:1;stroke:#ff0000;stroke-width:0.71960729;stroke-linecap:square;stroke-miterlimit:4;stroke-dasharray:none"
       id="rect3986-5-8"
       width="71.280396"
       height="15.280393"
       x="456.3598"
       y="1052.7219" />
    <rect
       style="fill:#ff0000;fill-opacity:1;stroke:#ff0000;stroke-width:1.85239112;stroke-linecap:square;stroke-miterlimit:4;stroke-dasharray:none"
       id="rect3986-2"
       width="14.147609"
       height="510.14761"
       x="512.92621"
       y="541.28839" />
    <rect
       style="fill:#ff0000;fill-opacity:1;stroke:#ff0000;stroke-width:1.36220336;stroke-linecap:square;stroke-miterlimit:4;stroke-dasharray:none"
       id="rect3986-5-8-5"
       width="266.63779"
       height="14.637795"
       x="260.68112"
       y="525.04327" />
    <path
       style="fill:none;stroke:#1a1a1a;stroke-width:10.04291534;stroke-linecap:square;stroke-linejoin:miter;stroke-miterlimit:4;stroke-opacity:1;stroke-dasharray:none"
       d="M 446,1052.3622 C 444.77537,777.12095 349.36183,647.71707 244,540.36218"
       id="path2993-5-2"
       inkscape:connector-curvature="0"
       sodipodi:nodetypes="cc" />
    <path
       style="fill:#00ff00;fill-opacity:1;fill-rule:nonzero;stroke:#00ff00;stroke-width:1.00599003;stroke-linecap:square;stroke-linejoin:miter;stroke-miterlimit:0;stroke-opacity:1;stroke-dasharray:none;stroke-dashoffset:76.87679205"
       d="m 461.26562,1041.9236 c -0.006,-6.2746 -0.47438,-21.6762 -1.04138,-34.2255 -8.55709,-189.39376 -59.84465,-319.67609 -174.65549,-443.66573 -5.68107,-6.13525 -12.96994,-14.00715 -16.19749,-17.4931 l -5.86826,-6.33808 124.34451,0 124.34449,0 0,256.56549 0,256.56552 -25.45795,0 -25.45796,0 -0.0104,-11.4086 10e-6,0 z"
       id="path4300"
       inkscape:connector-curvature="0" />
    <path
       style="fill:none;stroke:#1a1a1a;stroke-width:11;stroke-linecap:square;stroke-linejoin:miter;stroke-miterlimit:0;stroke-opacity:1;stroke-dasharray:none;stroke-dashoffset:76.87679205;marker-start:none"
       d="M 67,1052.3622 C 67.76868,909.01401 61.588389,835.70187 0,782.36218"
       id="path2993-59"
       inkscape:connector-curvature="0"
       sodipodi:nodetypes="cc" />
  </g>
</svg>
