<?xml version="1.0" encoding="UTF-8" standalone="no"?>
<!-- Created with Inkscape (http://www.inkscape.org/) -->

<svg
   xmlns:dc="http://purl.org/dc/elements/1.1/"
   xmlns:cc="http://creativecommons.org/ns#"
   xmlns:rdf="http://www.w3.org/1999/02/22-rdf-syntax-ns#"
   xmlns:svg="http://www.w3.org/2000/svg"
   xmlns="http://www.w3.org/2000/svg"
   xmlns:sodipodi="http://sodipodi.sourceforge.net/DTD/sodipodi-0.dtd"
   xmlns:inkscape="http://www.inkscape.org/namespaces/inkscape"
   width="512"
   height="512"
   id="svg2"
   version="1.1"
   inkscape:version="0.48.3.1 r9886"
   sodipodi:docname="corner.svg"
   inkscape:export-filename="/home/jussil/Home-Laptop-12.04/Projects/Programming/Projects/dustrac/sourceforge-git/dustrac-code/data/images/corner.png"
   inkscape:export-xdpi="45"
   inkscape:export-ydpi="45">
  <defs
     id="defs4" />
  <sodipodi:namedview
     id="base"
     pagecolor="#000000"
     bordercolor="#666666"
     borderopacity="1.0"
     inkscape:pageopacity="1"
     inkscape:pageshadow="2"
     inkscape:zoom="0.98994949"
     inkscape:cx="218.16549"
     inkscape:cy="300.2199"
     inkscape:document-units="px"
     inkscape:current-layer="layer1"
     showgrid="true"
     inkscape:window-width="1535"
     inkscape:window-height="876"
     inkscape:window-x="65"
     inkscape:window-y="24"
     inkscape:window-maximized="1"
     inkscape:snap-global="false">
    <inkscape:grid
       type="xygrid"
       id="grid3005"
       empspacing="5"
       visible="true"
       enabled="true"
       snapvisiblegridlinesonly="true" />
  </sodipodi:namedview>
  <metadata
     id="metadata7">
    <rdf:RDF>
      <cc:Work
         rdf:about="">
        <dc:format>image/svg+xml</dc:format>
        <dc:type
           rdf:resource="http://purl.org/dc/dcmitype/StillImage" />
        <dc:title></dc:title>
      </cc:Work>
    </rdf:RDF>
  </metadata>
  <g
     inkscape:label="Layer 1"
     inkscape:groupmode="layer"
     id="layer1"
     transform="translate(0,-540.36218)">
    <path
       style="fill:none;stroke:#f9f9f9;stroke-width:11;stroke-linecap:square;stroke-linejoin:miter;stroke-miterlimit:4;stroke-opacity:1;stroke-dasharray:none"
       d="M 56.593598,1046.9802 C 55.429129,684.62951 141.45944,597.13874 506.61801,596.94416"
       id="path2993"
       inkscape:connector-curvature="0"
       sodipodi:nodetypes="cc" />
    <path
       style="fill:none;stroke:#f9f9f9;stroke-width:11;stroke-linecap:square;stroke-linejoin:miter;stroke-miterlimit:4;stroke-opacity:1;stroke-dasharray:none"
       d="m 455.40914,1046.7544 c -0.13192,-41.0504 9.61442,-50.96218 50.98304,-50.98428"
       id="path2993-5"
       inkscape:connector-curvature="0"
       sodipodi:nodetypes="cc" />
    <rect
       style="fill:none;stroke:#ffffff;stroke-width:0.10017107000000000;stroke-miterlimit:4;stroke-dasharray:none"
       id="rect3883"
       width="511.77478"
       height="511.77487"
       x="0.16260691"
       y="540.42468" />
    <path
       style="fill:none;stroke:#1a1a1a;stroke-width:10.73191643;stroke-linecap:square;stroke-linejoin:miter;stroke-miterlimit:4;stroke-opacity:1;stroke-dasharray:none"
       d="M 67.577282,1046.9962 C 66.441192,693.47649 150.37483,608.11799 506.63404,607.92815"
       id="path2993-1"
       inkscape:connector-curvature="0"
       sodipodi:nodetypes="cc" />
    <path
       style="fill:none;stroke:#1a1a1a;stroke-width:11.53035545;stroke-linecap:square;stroke-linejoin:miter;stroke-miterlimit:4;stroke-opacity:1;stroke-dasharray:none"
       d="m 444.56678,1046.5971 c -0.16,-49.65388 11.62937,-61.64295 61.66805,-61.66968"
       id="path2993-5-3"
       inkscape:connector-curvature="0"
       sodipodi:nodetypes="cc" />
    <path
       style="opacity:0;fill:#00ff00;stroke:#1a1a1a;stroke-width:11.11167812;stroke-linecap:square;stroke-miterlimit:4;stroke-dasharray:none"
       d="m 0.57863438,255.51971 0,-255.06352132 255.06351562,0 255.06352,0 0,25.09881132 0,25.098813 -40.15356,0.617328 C 297.73157,53.928114 200.84389,80.578367 139.47461,142.33844 80.186788,202.00379 53.408553,299.32485 51.492206,462.0959 c -0.271453,23.05673 -0.721721,43.39868 -1.000597,45.20433 l -0.507046,3.28299 -24.702964,0 -24.70296462,0 0,-255.06351 z"
       id="path3945"
       inkscape:connector-curvature="0"
       transform="translate(0,540.36218)" />
    <path
       style="opacity:0;fill:#00ff00;stroke:#00ff00;stroke-width:11.11167812000000055;stroke-linecap:square;stroke-miterlimit:4;stroke-dasharray:none"
       d="m 0.57863438,255.51971 0,-255.06352132 255.06351562,0 255.06352,0 0,25.09881132 0,25.098813 -40.15356,0.617328 C 297.73157,53.928114 200.84389,80.578367 139.47461,142.33844 80.186788,202.00379 53.408553,299.32485 51.492206,462.0959 c -0.271453,23.05673 -0.721721,43.39868 -1.000597,45.20433 l -0.507046,3.28299 -24.702964,0 -24.70296462,0 0,-255.06351 z"
       id="path3949"
       inkscape:connector-curvature="0"
       transform="translate(0,540.36218)" />
    <path
       style="opacity:0;fill:#00ff00;stroke:#00ff00;stroke-width:11.11167812;stroke-linecap:square;stroke-miterlimit:4;stroke-dasharray:none"
       d="m 0.57863438,255.51971 0,-255.06352132 255.06351562,0 255.06352,0 0,25.09881132 0,25.098813 -40.15356,0.617328 C 297.73157,53.928114 200.84389,80.578367 139.47461,142.33844 80.186788,202.00379 53.408553,299.32485 51.492206,462.0959 c -0.271453,23.05673 -0.721721,43.39868 -1.000597,45.20433 l -0.507046,3.28299 -24.702964,0 -24.70296462,0 0,-255.06351 z"
       id="path3951"
       inkscape:connector-curvature="0"
       transform="translate(0,540.36218)" />
    <path
       style="opacity:0;fill:#00ff00;stroke:#00ff00;stroke-width:11.11167812;stroke-linecap:square;stroke-miterlimit:4;stroke-dasharray:none"
       d="m 461.21648,505.785 c 0.0117,-6.74139 1.87269,-22.26467 3.20246,-26.71221 1.46851,-4.91158 6.1739,-10.50919 10.83148,-12.88531 4.50719,-2.29939 12.37682,-3.71921 25.60626,-4.6198 l 9.84899,-0.67048 0,24.84301 0,24.84301 -24.74874,0 -24.74874,0 0.008,-4.79822 0,0 z"
       id="path3953"
       inkscape:connector-curvature="0"
       transform="translate(0,540.36218)" />
    <path
       style="fill:#00ff00;fill-opacity:1;stroke:#ffffff;stroke-width:0.10101525;stroke-linecap:square;stroke-miterlimit:4;stroke-dasharray:none"
       d="m 0.57863438,256.02478 0,-255.56859132 255.56859562,0 255.56859,0 0,25.09950332 0,25.099505 -40.65864,0.614777 C 297.84237,53.889059 200.9107,80.511139 139.47461,142.33844 80.255484,201.93466 53.416638,299.3305 51.499953,461.59082 51.23088,484.36976 50.772586,504.939 50.481524,507.30023 l -0.529205,4.29315 -24.686842,0 -24.68684262,0 0,-255.5686 z"
       id="path3959"
       inkscape:connector-curvature="0"
       transform="translate(0,540.36218)" />
    <path
       style="fill:#00ff00;fill-opacity:1;stroke:#ffffff;stroke-width:0.10101525;stroke-linecap:square;stroke-miterlimit:4;stroke-dasharray:none"
       d="m 461.21648,506.29007 c 0.0112,-7.16865 1.83011,-22.62733 3.20246,-27.21728 0.61358,-2.05218 2.45898,-5.36099 4.1009,-7.35292 5.49499,-6.66638 12.51059,-8.8395 32.84192,-10.17296 l 10.35406,-0.67909 0,25.36278 0,25.36278 -25.25381,0 -25.25382,0 0.008,-5.30331 0,0 z"
       id="path3961"
       inkscape:connector-curvature="0"
       transform="translate(0,540.36218)" />
  </g>
</svg>
